<svg version="1.2" xmlns="http://www.w3.org/2000/svg" viewBox="0 0 1540 350" width="1540" height="350"><style>.a{fill:#0b5cff}</style><path class="a" d="m323.6 344.4h-273.7c-18.1 0-35.2-9.5-43.6-25.8-9.5-18.5-6-40.7 8.6-55.3l190.4-190.3h-136.3c-37.6 0-68-30.4-68-67.9h252.1c18.1 0 35.3 9.5 43.6 25.7 9.5 18.6 6 40.8-8.6 55.4l-190.4 190.3h158c37.5 0 67.9 30.3 67.9 67.9zm1083.2-344.4c-39.2 0-74.5 16.9-98.6 44-24.4-27.1-59.6-44-98.6-44-72.8 0-132.2 62.1-132.2 134.6v209.8c37.6 0 68-30.4 68-67.9v-142.6c0-34.9 27.1-64.6 61.9-66 36.6-1.4 67 28 67 64.4v144.2c0 37.5 30.4 67.9 68 67.9v-210.5c0-34.9 27.1-64.6 61.9-66 36.6-1.4 67 28 67 64.4v144.2c0 37.5 30.4 67.9 68 67.9v-209.8c-0.2-72.5-59.6-134.6-132.4-134.6zm-740.4 174.7c0 96.4-78.4 174.8-174.9 174.8-96.4 0-174.8-78.4-174.8-174.8 0-96.4 78.6-174.7 174.8-174.7 96.3 0 174.9 78.3 174.9 174.7zm-67.9 0c0-58.8-48-106.8-107-106.8-58.9 0-106.9 48-106.9 106.8 0 58.9 48 106.9 106.9 106.9 59 0 107-48 107-106.9zm444.8 0c0 96.4-78.4 174.8-174.9 174.8-96.5 0-174.8-78.4-174.8-174.8 0-96.4 78.6-174.7 174.8-174.7 96.3 0 174.9 78.3 174.9 174.7zm-67.9 0c0-58.8-48.1-106.8-107-106.8-58.9 0-106.9 48-106.9 106.8 0 58.9 48 106.9 106.9 106.9 58.9 0 107-48 107-106.9z"/></svg>